<mxfile host="app.diagrams.net" agent="Mozilla/5.0 (Windows NT 10.0; Win64; x64) AppleWebKit/537.36 (KHTML, like Gecko) Chrome/134.0.0.0 Safari/537.36 Edg/134.0.0.0" version="26.1.0">
  <diagram name="Page-1" id="y1W9RfUVO1V5fEcaykIW">
    <mxGraphModel dx="786" dy="733" grid="0" gridSize="10" guides="1" tooltips="1" connect="1" arrows="1" fold="1" page="0" pageScale="1" pageWidth="850" pageHeight="1100" math="0" shadow="0">
      <root>
        <mxCell id="0" />
        <mxCell id="1" parent="0" />
        <mxCell id="6JEuvCTN8KJyj1kKY2gu-1" value="Students" style="shape=table;startSize=30;container=1;collapsible=1;childLayout=tableLayout;fixedRows=1;rowLines=0;fontStyle=1;align=center;resizeLast=1;html=1;" parent="1" vertex="1">
          <mxGeometry x="57" y="60" width="252" height="181" as="geometry" />
        </mxCell>
        <mxCell id="6JEuvCTN8KJyj1kKY2gu-2" value="" style="shape=tableRow;horizontal=0;startSize=0;swimlaneHead=0;swimlaneBody=0;fillColor=none;collapsible=0;dropTarget=0;points=[[0,0.5],[1,0.5]];portConstraint=eastwest;top=0;left=0;right=0;bottom=1;" parent="6JEuvCTN8KJyj1kKY2gu-1" vertex="1">
          <mxGeometry y="30" width="252" height="30" as="geometry" />
        </mxCell>
        <mxCell id="6JEuvCTN8KJyj1kKY2gu-3" value="PK" style="shape=partialRectangle;connectable=0;fillColor=none;top=0;left=0;bottom=0;right=0;fontStyle=1;overflow=hidden;whiteSpace=wrap;html=1;" parent="6JEuvCTN8KJyj1kKY2gu-2" vertex="1">
          <mxGeometry width="30" height="30" as="geometry">
            <mxRectangle width="30" height="30" as="alternateBounds" />
          </mxGeometry>
        </mxCell>
        <mxCell id="6JEuvCTN8KJyj1kKY2gu-4" value="studentID: VARCHAR(9)" style="shape=partialRectangle;connectable=0;fillColor=none;top=0;left=0;bottom=0;right=0;align=left;spacingLeft=6;fontStyle=5;overflow=hidden;whiteSpace=wrap;html=1;" parent="6JEuvCTN8KJyj1kKY2gu-2" vertex="1">
          <mxGeometry x="30" width="222" height="30" as="geometry">
            <mxRectangle width="222" height="30" as="alternateBounds" />
          </mxGeometry>
        </mxCell>
        <mxCell id="6JEuvCTN8KJyj1kKY2gu-5" value="" style="shape=tableRow;horizontal=0;startSize=0;swimlaneHead=0;swimlaneBody=0;fillColor=none;collapsible=0;dropTarget=0;points=[[0,0.5],[1,0.5]];portConstraint=eastwest;top=0;left=0;right=0;bottom=0;" parent="6JEuvCTN8KJyj1kKY2gu-1" vertex="1">
          <mxGeometry y="60" width="252" height="30" as="geometry" />
        </mxCell>
        <mxCell id="6JEuvCTN8KJyj1kKY2gu-6" value="" style="shape=partialRectangle;connectable=0;fillColor=none;top=0;left=0;bottom=0;right=0;editable=1;overflow=hidden;whiteSpace=wrap;html=1;" parent="6JEuvCTN8KJyj1kKY2gu-5" vertex="1">
          <mxGeometry width="30" height="30" as="geometry">
            <mxRectangle width="30" height="30" as="alternateBounds" />
          </mxGeometry>
        </mxCell>
        <mxCell id="6JEuvCTN8KJyj1kKY2gu-7" value="studentName: VARCHAR(100)" style="shape=partialRectangle;connectable=0;fillColor=none;top=0;left=0;bottom=0;right=0;align=left;spacingLeft=6;overflow=hidden;whiteSpace=wrap;html=1;" parent="6JEuvCTN8KJyj1kKY2gu-5" vertex="1">
          <mxGeometry x="30" width="222" height="30" as="geometry">
            <mxRectangle width="222" height="30" as="alternateBounds" />
          </mxGeometry>
        </mxCell>
        <mxCell id="6JEuvCTN8KJyj1kKY2gu-8" value="" style="shape=tableRow;horizontal=0;startSize=0;swimlaneHead=0;swimlaneBody=0;fillColor=none;collapsible=0;dropTarget=0;points=[[0,0.5],[1,0.5]];portConstraint=eastwest;top=0;left=0;right=0;bottom=0;" parent="6JEuvCTN8KJyj1kKY2gu-1" vertex="1">
          <mxGeometry y="90" width="252" height="30" as="geometry" />
        </mxCell>
        <mxCell id="6JEuvCTN8KJyj1kKY2gu-9" value="" style="shape=partialRectangle;connectable=0;fillColor=none;top=0;left=0;bottom=0;right=0;editable=1;overflow=hidden;whiteSpace=wrap;html=1;" parent="6JEuvCTN8KJyj1kKY2gu-8" vertex="1">
          <mxGeometry width="30" height="30" as="geometry">
            <mxRectangle width="30" height="30" as="alternateBounds" />
          </mxGeometry>
        </mxCell>
        <mxCell id="6JEuvCTN8KJyj1kKY2gu-10" value="studentEmail: VARCHAR(100)" style="shape=partialRectangle;connectable=0;fillColor=none;top=0;left=0;bottom=0;right=0;align=left;spacingLeft=6;overflow=hidden;whiteSpace=wrap;html=1;" parent="6JEuvCTN8KJyj1kKY2gu-8" vertex="1">
          <mxGeometry x="30" width="222" height="30" as="geometry">
            <mxRectangle width="222" height="30" as="alternateBounds" />
          </mxGeometry>
        </mxCell>
        <mxCell id="6JEuvCTN8KJyj1kKY2gu-11" value="" style="shape=tableRow;horizontal=0;startSize=0;swimlaneHead=0;swimlaneBody=0;fillColor=none;collapsible=0;dropTarget=0;points=[[0,0.5],[1,0.5]];portConstraint=eastwest;top=0;left=0;right=0;bottom=0;" parent="6JEuvCTN8KJyj1kKY2gu-1" vertex="1">
          <mxGeometry y="120" width="252" height="30" as="geometry" />
        </mxCell>
        <mxCell id="6JEuvCTN8KJyj1kKY2gu-12" value="" style="shape=partialRectangle;connectable=0;fillColor=none;top=0;left=0;bottom=0;right=0;editable=1;overflow=hidden;whiteSpace=wrap;html=1;" parent="6JEuvCTN8KJyj1kKY2gu-11" vertex="1">
          <mxGeometry width="30" height="30" as="geometry">
            <mxRectangle width="30" height="30" as="alternateBounds" />
          </mxGeometry>
        </mxCell>
        <mxCell id="6JEuvCTN8KJyj1kKY2gu-13" value="omangNumber: NUMBER(9)" style="shape=partialRectangle;connectable=0;fillColor=none;top=0;left=0;bottom=0;right=0;align=left;spacingLeft=6;overflow=hidden;whiteSpace=wrap;html=1;" parent="6JEuvCTN8KJyj1kKY2gu-11" vertex="1">
          <mxGeometry x="30" width="222" height="30" as="geometry">
            <mxRectangle width="222" height="30" as="alternateBounds" />
          </mxGeometry>
        </mxCell>
        <mxCell id="6hI-fY--DaLcRTAlSpk3-2" value="" style="shape=tableRow;horizontal=0;startSize=0;swimlaneHead=0;swimlaneBody=0;fillColor=none;collapsible=0;dropTarget=0;points=[[0,0.5],[1,0.5]];portConstraint=eastwest;top=0;left=0;right=0;bottom=0;" parent="6JEuvCTN8KJyj1kKY2gu-1" vertex="1">
          <mxGeometry y="150" width="252" height="30" as="geometry" />
        </mxCell>
        <mxCell id="6hI-fY--DaLcRTAlSpk3-3" value="FK" style="shape=partialRectangle;connectable=0;fillColor=none;top=0;left=0;bottom=0;right=0;editable=1;overflow=hidden;whiteSpace=wrap;html=1;" parent="6hI-fY--DaLcRTAlSpk3-2" vertex="1">
          <mxGeometry width="30" height="30" as="geometry">
            <mxRectangle width="30" height="30" as="alternateBounds" />
          </mxGeometry>
        </mxCell>
        <mxCell id="6hI-fY--DaLcRTAlSpk3-4" value="enrollmentDate: DATE" style="shape=partialRectangle;connectable=0;fillColor=none;top=0;left=0;bottom=0;right=0;align=left;spacingLeft=6;overflow=hidden;whiteSpace=wrap;html=1;" parent="6hI-fY--DaLcRTAlSpk3-2" vertex="1">
          <mxGeometry x="30" width="222" height="30" as="geometry">
            <mxRectangle width="222" height="30" as="alternateBounds" />
          </mxGeometry>
        </mxCell>
        <mxCell id="6hI-fY--DaLcRTAlSpk3-83" value="Enrollment" style="shape=table;startSize=30;container=1;collapsible=1;childLayout=tableLayout;fixedRows=1;rowLines=0;fontStyle=1;align=center;resizeLast=1;html=1;" parent="1" vertex="1">
          <mxGeometry x="462" y="51" width="222" height="146" as="geometry" />
        </mxCell>
        <mxCell id="6hI-fY--DaLcRTAlSpk3-84" value="" style="shape=tableRow;horizontal=0;startSize=0;swimlaneHead=0;swimlaneBody=0;fillColor=none;collapsible=0;dropTarget=0;points=[[0,0.5],[1,0.5]];portConstraint=eastwest;top=0;left=0;right=0;bottom=1;" parent="6hI-fY--DaLcRTAlSpk3-83" vertex="1">
          <mxGeometry y="30" width="222" height="30" as="geometry" />
        </mxCell>
        <mxCell id="6hI-fY--DaLcRTAlSpk3-85" value="PK" style="shape=partialRectangle;connectable=0;fillColor=none;top=0;left=0;bottom=0;right=0;fontStyle=1;overflow=hidden;whiteSpace=wrap;html=1;" parent="6hI-fY--DaLcRTAlSpk3-84" vertex="1">
          <mxGeometry width="30" height="30" as="geometry">
            <mxRectangle width="30" height="30" as="alternateBounds" />
          </mxGeometry>
        </mxCell>
        <mxCell id="6hI-fY--DaLcRTAlSpk3-86" value="enrollmentID: VARCHAR(6)" style="shape=partialRectangle;connectable=0;fillColor=none;top=0;left=0;bottom=0;right=0;align=left;spacingLeft=6;fontStyle=5;overflow=hidden;whiteSpace=wrap;html=1;" parent="6hI-fY--DaLcRTAlSpk3-84" vertex="1">
          <mxGeometry x="30" width="192" height="30" as="geometry">
            <mxRectangle width="192" height="30" as="alternateBounds" />
          </mxGeometry>
        </mxCell>
        <mxCell id="6hI-fY--DaLcRTAlSpk3-87" value="" style="shape=tableRow;horizontal=0;startSize=0;swimlaneHead=0;swimlaneBody=0;fillColor=none;collapsible=0;dropTarget=0;points=[[0,0.5],[1,0.5]];portConstraint=eastwest;top=0;left=0;right=0;bottom=0;" parent="6hI-fY--DaLcRTAlSpk3-83" vertex="1">
          <mxGeometry y="60" width="222" height="30" as="geometry" />
        </mxCell>
        <mxCell id="6hI-fY--DaLcRTAlSpk3-88" value="FK" style="shape=partialRectangle;connectable=0;fillColor=none;top=0;left=0;bottom=0;right=0;editable=1;overflow=hidden;whiteSpace=wrap;html=1;" parent="6hI-fY--DaLcRTAlSpk3-87" vertex="1">
          <mxGeometry width="30" height="30" as="geometry">
            <mxRectangle width="30" height="30" as="alternateBounds" />
          </mxGeometry>
        </mxCell>
        <mxCell id="6hI-fY--DaLcRTAlSpk3-89" value="studentID: VARCHAR(9)" style="shape=partialRectangle;connectable=0;fillColor=none;top=0;left=0;bottom=0;right=0;align=left;spacingLeft=6;overflow=hidden;whiteSpace=wrap;html=1;" parent="6hI-fY--DaLcRTAlSpk3-87" vertex="1">
          <mxGeometry x="30" width="192" height="30" as="geometry">
            <mxRectangle width="192" height="30" as="alternateBounds" />
          </mxGeometry>
        </mxCell>
        <mxCell id="6hI-fY--DaLcRTAlSpk3-90" value="" style="shape=tableRow;horizontal=0;startSize=0;swimlaneHead=0;swimlaneBody=0;fillColor=none;collapsible=0;dropTarget=0;points=[[0,0.5],[1,0.5]];portConstraint=eastwest;top=0;left=0;right=0;bottom=0;" parent="6hI-fY--DaLcRTAlSpk3-83" vertex="1">
          <mxGeometry y="90" width="222" height="30" as="geometry" />
        </mxCell>
        <mxCell id="6hI-fY--DaLcRTAlSpk3-91" value="" style="shape=partialRectangle;connectable=0;fillColor=none;top=0;left=0;bottom=0;right=0;editable=1;overflow=hidden;whiteSpace=wrap;html=1;" parent="6hI-fY--DaLcRTAlSpk3-90" vertex="1">
          <mxGeometry width="30" height="30" as="geometry">
            <mxRectangle width="30" height="30" as="alternateBounds" />
          </mxGeometry>
        </mxCell>
        <mxCell id="6hI-fY--DaLcRTAlSpk3-92" value="enrollmentDate: DATE" style="shape=partialRectangle;connectable=0;fillColor=none;top=0;left=0;bottom=0;right=0;align=left;spacingLeft=6;overflow=hidden;whiteSpace=wrap;html=1;" parent="6hI-fY--DaLcRTAlSpk3-90" vertex="1">
          <mxGeometry x="30" width="192" height="30" as="geometry">
            <mxRectangle width="192" height="30" as="alternateBounds" />
          </mxGeometry>
        </mxCell>
        <mxCell id="6hI-fY--DaLcRTAlSpk3-93" value="" style="shape=tableRow;horizontal=0;startSize=0;swimlaneHead=0;swimlaneBody=0;fillColor=none;collapsible=0;dropTarget=0;points=[[0,0.5],[1,0.5]];portConstraint=eastwest;top=0;left=0;right=0;bottom=0;" parent="6hI-fY--DaLcRTAlSpk3-83" vertex="1">
          <mxGeometry y="120" width="222" height="20" as="geometry" />
        </mxCell>
        <mxCell id="6hI-fY--DaLcRTAlSpk3-94" value="" style="shape=partialRectangle;connectable=0;fillColor=none;top=0;left=0;bottom=0;right=0;editable=1;overflow=hidden;whiteSpace=wrap;html=1;" parent="6hI-fY--DaLcRTAlSpk3-93" vertex="1">
          <mxGeometry width="30" height="20" as="geometry">
            <mxRectangle width="30" height="20" as="alternateBounds" />
          </mxGeometry>
        </mxCell>
        <mxCell id="6hI-fY--DaLcRTAlSpk3-95" value="" style="shape=partialRectangle;connectable=0;fillColor=none;top=0;left=0;bottom=0;right=0;align=left;spacingLeft=6;overflow=hidden;whiteSpace=wrap;html=1;" parent="6hI-fY--DaLcRTAlSpk3-93" vertex="1">
          <mxGeometry x="30" width="192" height="20" as="geometry">
            <mxRectangle width="192" height="20" as="alternateBounds" />
          </mxGeometry>
        </mxCell>
        <mxCell id="XrdEf8VkT4Mnjk_KKQd5-14" value="&lt;span style=&quot;text-wrap-mode: wrap;&quot;&gt;admissionLetter&lt;/span&gt;" style="shape=table;startSize=30;container=1;collapsible=1;childLayout=tableLayout;fixedRows=1;rowLines=0;fontStyle=1;align=center;resizeLast=1;html=1;" vertex="1" parent="1">
          <mxGeometry x="579" y="445" width="219" height="138" as="geometry" />
        </mxCell>
        <mxCell id="XrdEf8VkT4Mnjk_KKQd5-15" value="" style="shape=tableRow;horizontal=0;startSize=0;swimlaneHead=0;swimlaneBody=0;fillColor=none;collapsible=0;dropTarget=0;points=[[0,0.5],[1,0.5]];portConstraint=eastwest;top=0;left=0;right=0;bottom=1;" vertex="1" parent="XrdEf8VkT4Mnjk_KKQd5-14">
          <mxGeometry y="30" width="219" height="30" as="geometry" />
        </mxCell>
        <mxCell id="XrdEf8VkT4Mnjk_KKQd5-16" value="PK" style="shape=partialRectangle;connectable=0;fillColor=none;top=0;left=0;bottom=0;right=0;fontStyle=1;overflow=hidden;whiteSpace=wrap;html=1;" vertex="1" parent="XrdEf8VkT4Mnjk_KKQd5-15">
          <mxGeometry width="30" height="30" as="geometry">
            <mxRectangle width="30" height="30" as="alternateBounds" />
          </mxGeometry>
        </mxCell>
        <mxCell id="XrdEf8VkT4Mnjk_KKQd5-17" value="letterID: VARCHAR(6)" style="shape=partialRectangle;connectable=0;fillColor=none;top=0;left=0;bottom=0;right=0;align=left;spacingLeft=6;fontStyle=5;overflow=hidden;whiteSpace=wrap;html=1;" vertex="1" parent="XrdEf8VkT4Mnjk_KKQd5-15">
          <mxGeometry x="30" width="189" height="30" as="geometry">
            <mxRectangle width="189" height="30" as="alternateBounds" />
          </mxGeometry>
        </mxCell>
        <mxCell id="XrdEf8VkT4Mnjk_KKQd5-18" value="" style="shape=tableRow;horizontal=0;startSize=0;swimlaneHead=0;swimlaneBody=0;fillColor=none;collapsible=0;dropTarget=0;points=[[0,0.5],[1,0.5]];portConstraint=eastwest;top=0;left=0;right=0;bottom=0;" vertex="1" parent="XrdEf8VkT4Mnjk_KKQd5-14">
          <mxGeometry y="60" width="219" height="30" as="geometry" />
        </mxCell>
        <mxCell id="XrdEf8VkT4Mnjk_KKQd5-19" value="FK" style="shape=partialRectangle;connectable=0;fillColor=none;top=0;left=0;bottom=0;right=0;editable=1;overflow=hidden;whiteSpace=wrap;html=1;" vertex="1" parent="XrdEf8VkT4Mnjk_KKQd5-18">
          <mxGeometry width="30" height="30" as="geometry">
            <mxRectangle width="30" height="30" as="alternateBounds" />
          </mxGeometry>
        </mxCell>
        <mxCell id="XrdEf8VkT4Mnjk_KKQd5-20" value="studentID: VARCHAR(9)" style="shape=partialRectangle;connectable=0;fillColor=none;top=0;left=0;bottom=0;right=0;align=left;spacingLeft=6;overflow=hidden;whiteSpace=wrap;html=1;" vertex="1" parent="XrdEf8VkT4Mnjk_KKQd5-18">
          <mxGeometry x="30" width="189" height="30" as="geometry">
            <mxRectangle width="189" height="30" as="alternateBounds" />
          </mxGeometry>
        </mxCell>
        <mxCell id="XrdEf8VkT4Mnjk_KKQd5-21" value="" style="shape=tableRow;horizontal=0;startSize=0;swimlaneHead=0;swimlaneBody=0;fillColor=none;collapsible=0;dropTarget=0;points=[[0,0.5],[1,0.5]];portConstraint=eastwest;top=0;left=0;right=0;bottom=0;" vertex="1" parent="XrdEf8VkT4Mnjk_KKQd5-14">
          <mxGeometry y="90" width="219" height="20" as="geometry" />
        </mxCell>
        <mxCell id="XrdEf8VkT4Mnjk_KKQd5-22" value="FK" style="shape=partialRectangle;connectable=0;fillColor=none;top=0;left=0;bottom=0;right=0;editable=1;overflow=hidden;whiteSpace=wrap;html=1;" vertex="1" parent="XrdEf8VkT4Mnjk_KKQd5-21">
          <mxGeometry width="30" height="20" as="geometry">
            <mxRectangle width="30" height="20" as="alternateBounds" />
          </mxGeometry>
        </mxCell>
        <mxCell id="XrdEf8VkT4Mnjk_KKQd5-23" value="enrollmentID: VARCHAR(6)" style="shape=partialRectangle;connectable=0;fillColor=none;top=0;left=0;bottom=0;right=0;align=left;spacingLeft=6;overflow=hidden;whiteSpace=wrap;html=1;" vertex="1" parent="XrdEf8VkT4Mnjk_KKQd5-21">
          <mxGeometry x="30" width="189" height="20" as="geometry">
            <mxRectangle width="189" height="20" as="alternateBounds" />
          </mxGeometry>
        </mxCell>
        <mxCell id="XrdEf8VkT4Mnjk_KKQd5-24" value="" style="shape=tableRow;horizontal=0;startSize=0;swimlaneHead=0;swimlaneBody=0;fillColor=none;collapsible=0;dropTarget=0;points=[[0,0.5],[1,0.5]];portConstraint=eastwest;top=0;left=0;right=0;bottom=0;" vertex="1" parent="XrdEf8VkT4Mnjk_KKQd5-14">
          <mxGeometry y="110" width="219" height="28" as="geometry" />
        </mxCell>
        <mxCell id="XrdEf8VkT4Mnjk_KKQd5-25" value="" style="shape=partialRectangle;connectable=0;fillColor=none;top=0;left=0;bottom=0;right=0;editable=1;overflow=hidden;whiteSpace=wrap;html=1;" vertex="1" parent="XrdEf8VkT4Mnjk_KKQd5-24">
          <mxGeometry width="30" height="28" as="geometry">
            <mxRectangle width="30" height="28" as="alternateBounds" />
          </mxGeometry>
        </mxCell>
        <mxCell id="XrdEf8VkT4Mnjk_KKQd5-26" value="" style="shape=partialRectangle;connectable=0;fillColor=none;top=0;left=0;bottom=0;right=0;align=left;spacingLeft=6;overflow=hidden;whiteSpace=wrap;html=1;" vertex="1" parent="XrdEf8VkT4Mnjk_KKQd5-24">
          <mxGeometry x="30" width="189" height="28" as="geometry">
            <mxRectangle width="189" height="28" as="alternateBounds" />
          </mxGeometry>
        </mxCell>
        <mxCell id="XrdEf8VkT4Mnjk_KKQd5-39" value="1" style="text;html=1;align=center;verticalAlign=middle;resizable=0;points=[];autosize=1;strokeColor=none;fillColor=none;" vertex="1" parent="1">
          <mxGeometry x="313" y="107" width="25" height="26" as="geometry" />
        </mxCell>
        <mxCell id="XrdEf8VkT4Mnjk_KKQd5-40" value="n" style="text;html=1;align=center;verticalAlign=middle;resizable=0;points=[];autosize=1;strokeColor=none;fillColor=none;" vertex="1" parent="1">
          <mxGeometry x="431" y="104" width="25" height="26" as="geometry" />
        </mxCell>
        <mxCell id="XrdEf8VkT4Mnjk_KKQd5-41" style="edgeStyle=orthogonalEdgeStyle;rounded=0;orthogonalLoop=1;jettySize=auto;html=1;exitX=1;exitY=0.5;exitDx=0;exitDy=0;entryX=0.018;entryY=0.8;entryDx=0;entryDy=0;entryPerimeter=0;endArrow=none;startFill=0;" edge="1" parent="1" source="6JEuvCTN8KJyj1kKY2gu-5" target="6hI-fY--DaLcRTAlSpk3-87">
          <mxGeometry relative="1" as="geometry" />
        </mxCell>
        <mxCell id="XrdEf8VkT4Mnjk_KKQd5-48" style="edgeStyle=orthogonalEdgeStyle;rounded=0;orthogonalLoop=1;jettySize=auto;html=1;exitX=0.75;exitY=1;exitDx=0;exitDy=0;entryX=0.557;entryY=0.021;entryDx=0;entryDy=0;entryPerimeter=0;" edge="1" parent="1" source="6hI-fY--DaLcRTAlSpk3-83" target="XrdEf8VkT4Mnjk_KKQd5-14">
          <mxGeometry relative="1" as="geometry" />
        </mxCell>
        <mxCell id="XrdEf8VkT4Mnjk_KKQd5-49" value="1" style="text;html=1;align=center;verticalAlign=middle;resizable=0;points=[];autosize=1;strokeColor=none;fillColor=none;" vertex="1" parent="1">
          <mxGeometry x="627" y="211" width="25" height="26" as="geometry" />
        </mxCell>
        <mxCell id="XrdEf8VkT4Mnjk_KKQd5-50" value="1" style="text;html=1;align=center;verticalAlign=middle;resizable=0;points=[];autosize=1;strokeColor=none;fillColor=none;" vertex="1" parent="1">
          <mxGeometry x="707" y="414" width="25" height="26" as="geometry" />
        </mxCell>
        <mxCell id="XrdEf8VkT4Mnjk_KKQd5-51" value="generates" style="text;html=1;align=center;verticalAlign=middle;resizable=0;points=[];autosize=1;strokeColor=none;fillColor=none;" vertex="1" parent="1">
          <mxGeometry x="629" y="304" width="71" height="26" as="geometry" />
        </mxCell>
        <mxCell id="XrdEf8VkT4Mnjk_KKQd5-53" value="have" style="text;html=1;align=center;verticalAlign=middle;resizable=0;points=[];autosize=1;strokeColor=none;fillColor=none;" vertex="1" parent="1">
          <mxGeometry x="354" y="113" width="44" height="26" as="geometry" />
        </mxCell>
      </root>
    </mxGraphModel>
  </diagram>
</mxfile>
